<svg width="256" height="90" viewBox="0 0 256 90" fill="none" xmlns="http://www.w3.org/2000/svg">
<path d="M36.6382 60.8916V0H54.5702V62.5687C54.5702 78.1786 44.8947 88.6283 26.4466 88.6283C9.93359 88.6283 0 79.5977 0 62.0527V53.2802H16.255V61.1496C16.255 69.7931 19.0931 74.0504 26.4466 74.0504C34.7031 74.0504 36.6382 70.3092 36.6382 60.8916Z" fill="white"/>
<path d="M140.547 30.4624C140.547 35.7664 136.247 40.0662 130.943 40.0662L87.1082 40.0662L87.1082 30.4624C87.1082 25.1584 91.4079 20.8587 96.7119 20.8587L130.943 20.8587C136.247 20.8587 140.547 25.1584 140.547 30.4624Z" fill="white"/>
<path d="M64.2871 30.4619C64.2871 25.1579 68.5877 20.8582 73.8917 20.8582C79.1948 20.8582 83.4946 25.158 83.4946 30.4611C83.4946 35.7651 79.1949 40.0657 73.8909 40.0657C68.5869 40.0657 64.2871 35.7659 64.2871 30.4619Z" fill="white"/>
<path d="M64.2871 54.6142C64.2871 49.3102 68.5869 45.0105 73.8909 45.0105L117.726 45.0105L117.726 54.6143C117.726 59.9183 113.426 64.218 108.122 64.218L73.8908 64.218C68.5868 64.218 64.2871 59.9183 64.2871 54.6142Z" fill="white"/>
<path d="M140.547 54.614C140.547 59.918 136.246 64.2178 130.942 64.2178C125.639 64.2178 121.339 59.9179 121.339 54.6149C121.339 49.3109 125.639 45.0103 130.943 45.0103C136.247 45.0103 140.547 49.31 140.547 54.614Z" fill="white"/>
<path d="M140.547 78.7661C140.547 84.0701 136.247 88.3699 130.943 88.3699L87.1082 88.3699L87.1082 78.7661C87.1082 73.4621 91.4079 69.1624 96.7119 69.1624L130.943 69.1624C136.247 69.1624 140.547 73.4621 140.547 78.7661Z" fill="white"/>
<path d="M64.2871 78.7661C64.2871 84.0701 68.5877 88.3699 73.8917 88.3699C79.1948 88.3699 83.4946 84.07 83.4946 78.767C83.4946 73.463 79.1949 69.1624 73.8909 69.1624C68.5869 69.1624 64.2871 73.4621 64.2871 78.7661Z" fill="white"/>
<path d="M180.75 75.4955C189.136 75.4955 195.07 67.626 195.07 56.2733C195.07 43.2436 190.426 36.6642 180.621 36.6642C171.333 36.6642 166.559 43.5016 166.559 57.3054C166.559 68.013 172.752 75.4955 180.75 75.4955ZM166.817 87.4932H150.691V0.800049H167.204V32.2779C171.978 25.5695 178.17 22.3443 186.039 22.3443C202.423 22.3443 212.099 35.8901 212.099 55.1123C212.099 76.5275 200.617 89.1703 184.62 89.1703C176.88 89.1703 170.946 86.2031 166.946 79.7527L166.817 87.4932Z" fill="white"/>
<path d="M235.116 87.4932H218.345V24.0214H234.084V31.6329C239.631 23.1184 246.081 22.3443 252.919 22.3443H255.112V39.5023C253.564 39.2443 252.016 39.1153 250.468 39.1153C240.147 39.1153 235.116 44.2756 235.116 54.4672V87.4932Z" fill="white"/>
</svg>
